<svg viewBox="0 0 800 800" xmlns="http://www.w3.org/2000/svg" role="img" aria-hidden="true"><defs>
    <linearGradient id="bg" x1="0" y1="0" x2="0" y2="1">
      <stop offset="0" stop-color="#fbf3e2"/>
      <stop offset="0.62" stop-color="#eddab3"/>
      <stop offset="1" stop-color="#e2c793"/>
    </linearGradient>
    <radialGradient id="vign" cx="50%" cy="42%" r="70%">
      <stop offset="0.6" stop-color="#000" stop-opacity="0"/>
      <stop offset="1" stop-color="#3a2410" stop-opacity="0.16"/>
    </radialGradient>
    <marker id="arrow" markerWidth="8" markerHeight="8" refX="4" refY="4" orient="auto">
      <path d="M0 0 L8 4 L0 8 Z" fill="#33230f"/>
    </marker>
  </defs><rect x="0" y="0" width="800" height="800" fill="url(#bg)"/>
    <rect x="60" y="90" width="220" height="300" fill="#eddab3" stroke="#33230f" stroke-width="4" opacity="0.85"/><line x1="60" y1="190" x2="280" y2="190" stroke="#33230f" stroke-width="2.5" opacity="0.5"/><line x1="60" y1="290" x2="280" y2="290" stroke="#33230f" stroke-width="2.5" opacity="0.5"/><rect x="68" y="95" width="6" height="90" fill="#c99a3a" opacity="0.55"/><rect x="102" y="95" width="6" height="90" fill="#1d3a8a" opacity="0.55"/><rect x="136" y="95" width="6" height="90" fill="#c99a3a" opacity="0.55"/><rect x="170" y="95" width="6" height="90" fill="#1d3a8a" opacity="0.55"/><rect x="204" y="95" width="6" height="90" fill="#c99a3a" opacity="0.55"/><rect x="238" y="95" width="6" height="90" fill="#1d3a8a" opacity="0.55"/><rect x="272" y="95" width="6" height="90" fill="#c99a3a" opacity="0.55"/>
    <rect x="520" y="90" width="220" height="300" fill="#eddab3" stroke="#33230f" stroke-width="4" opacity="0.85"/><line x1="520" y1="190" x2="740" y2="190" stroke="#33230f" stroke-width="2.5" opacity="0.5"/><line x1="520" y1="290" x2="740" y2="290" stroke="#33230f" stroke-width="2.5" opacity="0.5"/><rect x="528" y="95" width="6" height="90" fill="#c99a3a" opacity="0.55"/><rect x="562" y="95" width="6" height="90" fill="#1d3a8a" opacity="0.55"/><rect x="596" y="95" width="6" height="90" fill="#c99a3a" opacity="0.55"/><rect x="630" y="95" width="6" height="90" fill="#1d3a8a" opacity="0.55"/><rect x="664" y="95" width="6" height="90" fill="#c99a3a" opacity="0.55"/><rect x="698" y="95" width="6" height="90" fill="#1d3a8a" opacity="0.55"/><rect x="732" y="95" width="6" height="90" fill="#c99a3a" opacity="0.55"/>
    <line x1="0" y1="660" x2="800" y2="660" stroke="#33230f" stroke-width="3" opacity="0.28"/>
    <!-- a balance scale in equilibrium: the oldest equation metaphor -->
    <g transform="translate(400 470)">
      <line x1="0" y1="-90" x2="0" y2="60" stroke="#33230f" stroke-width="8"/>
      <line x1="-110" y1="-70" x2="110" y2="-70" stroke="#33230f" stroke-width="7"/>
      <line x1="-110" y1="-70" x2="-110" y2="-30" stroke="#33230f" stroke-width="4"/>
      <line x1="110" y1="-70" x2="110" y2="-30" stroke="#33230f" stroke-width="4"/>
      <path d="M-150 -30 Q-110 10 -70 -30 Z" fill="#1d3a8a" stroke="#33230f" stroke-width="4"/>
      <path d="M70 -30 Q110 10 150 -30 Z" fill="#c99a3a" stroke="#33230f" stroke-width="4"/>
      <path d="M-40 60 L40 60 L26 100 L-26 100 Z" fill="#e2c793" stroke="#33230f" stroke-width="5"/>
    </g>
    <g transform="translate(400 640) scale(0.95 0.95)">
    <!-- robe -->
    <path d="M-70 190 Q-90 60 -46 -30 Q0 -58 46 -30 Q90 60 70 190 Z" fill="#6b4a2b" stroke="#33230f" stroke-width="5"/>
    <path d="M-46 -30 Q0 10 46 -30" fill="none" stroke="#33230f" stroke-width="3.5" opacity="0.6"/>
    <path d="M-20 190 L-14 40 M20 190 L14 40" stroke="#33230f" stroke-width="2.5" opacity="0.35"/>
    <!-- arm -->
    
    
    
    <path d="M-40 -10 Q-70 30 -66 78" fill="none" stroke="#6b4a2b" stroke-width="16" stroke-linecap="round"/>
    <path d="M-40 -10 Q-70 30 -66 78" fill="none" stroke="#33230f" stroke-width="5" stroke-linecap="round" opacity="0.5"/>
    <circle cx="-67" cy="82" r="9" fill="#e0b083" stroke="#33230f" stroke-width="3"/>
    <!-- head -->
    <circle cx="0" cy="-72" r="44" fill="#e0b083" stroke="#33230f" stroke-width="5"/>
    <path d="M-40 -84 Q0 -122 40 -84 Q42 -104 0 -116 Q-42 -104 -40 -84 Z" fill="#3a2717" stroke="#33230f" stroke-width="4"/>
    <path d="M-16 -68 q6 -8 12 0 M8 -68 q6 -8 12 0" stroke="#33230f" stroke-width="3.5" fill="none" stroke-linecap="round"/>
    <path d="M-6 -50 q6 4 12 0" stroke="#33230f" stroke-width="3" fill="none" stroke-linecap="round"/>
    
    
    
    
  </g>
  <rect x="0" y="0" width="800" height="800" fill="url(#vign)"/></svg>
