<svg viewBox="0 0 800 800" xmlns="http://www.w3.org/2000/svg" role="img" aria-hidden="true"><defs>
    <linearGradient id="bg" x1="0" y1="0" x2="0" y2="1">
      <stop offset="0" stop-color="#fbf3e2"/>
      <stop offset="0.62" stop-color="#eddab3"/>
      <stop offset="1" stop-color="#e2c793"/>
    </linearGradient>
    <radialGradient id="vign" cx="50%" cy="42%" r="70%">
      <stop offset="0.6" stop-color="#000" stop-opacity="0"/>
      <stop offset="1" stop-color="#3a2410" stop-opacity="0.16"/>
    </radialGradient>
    <marker id="arrow" markerWidth="8" markerHeight="8" refX="4" refY="4" orient="auto">
      <path d="M0 0 L8 4 L0 8 Z" fill="#33230f"/>
    </marker>
  </defs><rect x="0" y="0" width="800" height="800" fill="url(#bg)"/>
    <path d="M0 600 Q100 586 200 600 T400 600 T600 600 T800 600 L800 800 L0 800 Z" fill="#1d3a8a" opacity="0.18"/>
    <rect x="540" y="100" width="220" height="300" fill="#eddab3" stroke="#33230f" stroke-width="4" opacity="0.85"/><line x1="540" y1="200" x2="760" y2="200" stroke="#33230f" stroke-width="2.5" opacity="0.5"/><line x1="540" y1="300" x2="760" y2="300" stroke="#33230f" stroke-width="2.5" opacity="0.5"/><rect x="548" y="105" width="6" height="90" fill="#c99a3a" opacity="0.55"/><rect x="582" y="105" width="6" height="90" fill="#1d3a8a" opacity="0.55"/><rect x="616" y="105" width="6" height="90" fill="#c99a3a" opacity="0.55"/><rect x="650" y="105" width="6" height="90" fill="#1d3a8a" opacity="0.55"/><rect x="684" y="105" width="6" height="90" fill="#c99a3a" opacity="0.55"/><rect x="718" y="105" width="6" height="90" fill="#1d3a8a" opacity="0.55"/><rect x="752" y="105" width="6" height="90" fill="#c99a3a" opacity="0.55"/>
    <!-- a machine: input in one side, output the other  -  the function-as-machine metaphor -->
    <g transform="translate(240 470)">
      <rect x="-30" y="-50" width="160" height="100" rx="16" fill="#fbf3e2" stroke="#1d3a8a" stroke-width="7"/>
      <text x="50" y="10" font-size="1" opacity="0"> </text>
      <path d="M-70 0 h40" stroke="#33230f" stroke-width="6" marker-end="url(#arrow)"/>
      <circle cx="-80" cy="0" r="14" fill="#c99a3a" stroke="#33230f" stroke-width="3"/>
      <path d="M130 0 h40" stroke="#33230f" stroke-width="6" marker-end="url(#arrow)"/>
      <path d="M186 -20 L214 0 L186 20 Z" fill="#c99a3a" stroke="#33230f" stroke-width="3"/>
      <circle cx="20" cy="0" r="26" fill="none" stroke="#33230f" stroke-width="4" opacity="0.5"/>
      <circle cx="20" cy="0" r="10" fill="#1d3a8a"/>
    </g>
    <g transform="translate(340 610) scale(0.92 0.92)">
    <!-- robe -->
    <path d="M-70 190 Q-90 60 -46 -30 Q0 -58 46 -30 Q90 60 70 190 Z" fill="#1d3a8a" stroke="#33230f" stroke-width="5"/>
    <path d="M-46 -30 Q0 10 46 -30" fill="none" stroke="#33230f" stroke-width="3.5" opacity="0.6"/>
    <path d="M-20 190 L-14 40 M20 190 L14 40" stroke="#33230f" stroke-width="2.5" opacity="0.35"/>
    <!-- arm -->
    <path d="M40 -10 Q92 -34 132 -70" fill="none" stroke="#1d3a8a" stroke-width="16" stroke-linecap="round"/>
      <path d="M40 -10 Q92 -34 132 -70" fill="none" stroke="#33230f" stroke-width="5" stroke-linecap="round" opacity="0.5"/>
      <circle cx="136" cy="-73" r="9" fill="#e0b083" stroke="#33230f" stroke-width="3"/>
    
    
    <path d="M-40 -10 Q-70 30 -66 78" fill="none" stroke="#1d3a8a" stroke-width="16" stroke-linecap="round"/>
    <path d="M-40 -10 Q-70 30 -66 78" fill="none" stroke="#33230f" stroke-width="5" stroke-linecap="round" opacity="0.5"/>
    <circle cx="-67" cy="82" r="9" fill="#e0b083" stroke="#33230f" stroke-width="3"/>
    <!-- head -->
    <circle cx="0" cy="-72" r="44" fill="#e0b083" stroke="#33230f" stroke-width="5"/>
    <path d="M-40 -84 Q0 -122 40 -84 Q42 -104 0 -116 Q-42 -104 -40 -84 Z" fill="#3a2717" stroke="#33230f" stroke-width="4"/>
    <path d="M-16 -68 q6 -8 12 0 M8 -68 q6 -8 12 0" stroke="#33230f" stroke-width="3.5" fill="none" stroke-linecap="round"/>
    <path d="M-6 -50 q6 4 12 0" stroke="#33230f" stroke-width="3" fill="none" stroke-linecap="round"/>
    
    
    
    
  </g>
  <rect x="0" y="0" width="800" height="800" fill="url(#vign)"/></svg>
