<svg viewBox="0 0 800 800" xmlns="http://www.w3.org/2000/svg" role="img" aria-hidden="true"><defs>
    <linearGradient id="bg" x1="0" y1="0" x2="0" y2="1">
      <stop offset="0" stop-color="#fbf3e2"/>
      <stop offset="0.62" stop-color="#eddab3"/>
      <stop offset="1" stop-color="#e2c793"/>
    </linearGradient>
    <radialGradient id="vign" cx="50%" cy="42%" r="70%">
      <stop offset="0.6" stop-color="#000" stop-opacity="0"/>
      <stop offset="1" stop-color="#3a2410" stop-opacity="0.16"/>
    </radialGradient>
    <marker id="arrow" markerWidth="8" markerHeight="8" refX="4" refY="4" orient="auto">
      <path d="M0 0 L8 4 L0 8 Z" fill="#33230f"/>
    </marker>
  </defs><rect x="0" y="0" width="800" height="800" fill="url(#bg)"/>
    <path d="M0 500 Q100 486 200 500 T400 500 T600 500 T800 500 L800 800 L0 800 Z" fill="#1d3a8a" opacity="0.4"/>
    <path d="M300 500 Q440 534 580 500 L560 480 L320 480 Z" fill="#e2c793" stroke="#33230f" stroke-width="4"/>
    <line x1="440" y1="480" x2="440" y2="390" stroke="#33230f" stroke-width="5"/>
    <path d="M440 392 L500 440 L440 460 Z" fill="#fbf3e2" stroke="#33230f" stroke-width="3.5"/>
    <!-- Hippasus overboard  -  the irrational number that couldn't be a ratio -->
    <g transform="translate(560 560)">
      <circle cx="0" cy="0" r="16" fill="#e0b083" stroke="#33230f" stroke-width="4"/>
      <path d="M-14 14 Q0 60 14 14" fill="#3a2f63" stroke="#33230f" stroke-width="4"/>
      <path d="M-40 40 q40 30 80 0" fill="none" stroke="#1d3a8a" stroke-width="4" opacity="0.6"/>
    </g>
    <path d="M420 640 h4 a90 60 0 0 1 176 0" fill="none" stroke="#33230f" stroke-width="6" opacity="0.7"/>
    <text x="0" y="0" font-size="1" opacity="0"> </text>
    <g transform="translate(220 560) scale(0.86 0.86)">
    <!-- robe -->
    <path d="M-70 190 Q-90 60 -46 -30 Q0 -58 46 -30 Q90 60 70 190 Z" fill="#274a63" stroke="#33230f" stroke-width="5"/>
    <path d="M-46 -30 Q0 10 46 -30" fill="none" stroke="#33230f" stroke-width="3.5" opacity="0.6"/>
    <path d="M-20 190 L-14 40 M20 190 L14 40" stroke="#33230f" stroke-width="2.5" opacity="0.35"/>
    <!-- arm -->
    
    <path d="M36 -20 Q70 -90 60 -140" fill="none" stroke="#274a63" stroke-width="16" stroke-linecap="round"/>
      <path d="M36 -20 Q70 -90 60 -140" fill="none" stroke="#33230f" stroke-width="5" stroke-linecap="round" opacity="0.5"/>
      <circle cx="58" cy="-144" r="9" fill="#e0b083" stroke="#33230f" stroke-width="3"/>
    
    <path d="M-40 -10 Q-70 30 -66 78" fill="none" stroke="#274a63" stroke-width="16" stroke-linecap="round"/>
    <path d="M-40 -10 Q-70 30 -66 78" fill="none" stroke="#33230f" stroke-width="5" stroke-linecap="round" opacity="0.5"/>
    <circle cx="-67" cy="82" r="9" fill="#e0b083" stroke="#33230f" stroke-width="3"/>
    <!-- head -->
    <circle cx="0" cy="-72" r="44" fill="#e0b083" stroke="#33230f" stroke-width="5"/>
    <path d="M-40 -84 Q0 -122 40 -84 Q42 -104 0 -116 Q-42 -104 -40 -84 Z" fill="#3a2717" stroke="#33230f" stroke-width="4"/>
    <path d="M-16 -68 q6 -8 12 0 M8 -68 q6 -8 12 0" stroke="#33230f" stroke-width="3.5" fill="none" stroke-linecap="round"/>
    <path d="M-6 -50 q6 4 12 0" stroke="#33230f" stroke-width="3" fill="none" stroke-linecap="round"/>
    
    
    
    
  </g>
  <rect x="0" y="0" width="800" height="800" fill="url(#vign)"/></svg>
