<svg viewBox="0 0 800 800" xmlns="http://www.w3.org/2000/svg" role="img" aria-hidden="true"><defs>
    <linearGradient id="bg" x1="0" y1="0" x2="0" y2="1">
      <stop offset="0" stop-color="#fbf3e2"/>
      <stop offset="0.62" stop-color="#eddab3"/>
      <stop offset="1" stop-color="#e2c793"/>
    </linearGradient>
    <radialGradient id="vign" cx="50%" cy="42%" r="70%">
      <stop offset="0.6" stop-color="#000" stop-opacity="0"/>
      <stop offset="1" stop-color="#3a2410" stop-opacity="0.16"/>
    </radialGradient>
    <marker id="arrow" markerWidth="8" markerHeight="8" refX="4" refY="4" orient="auto">
      <path d="M0 0 L8 4 L0 8 Z" fill="#33230f"/>
    </marker>
  </defs><rect x="0" y="0" width="800" height="800" fill="url(#bg)"/>
    <path d="M0 560 Q100 546 200 560 T400 560 T600 560 T800 560 L800 800 L0 800 Z" fill="#1d3a8a" opacity="0.3"/>
    <path d="M430 560 Q580 594 730 560 L710 540 L450 540 Z" fill="#e2c793" stroke="#33230f" stroke-width="4"/>
    <line x1="580" y1="540" x2="580" y2="450" stroke="#33230f" stroke-width="5"/>
    <path d="M580 452 L640 500 L580 520 Z" fill="#fbf3e2" stroke="#33230f" stroke-width="3.5"/>
    <line x1="0" y1="760" x2="800" y2="760" stroke="#33230f" stroke-width="3" opacity="0.28"/>
    <!-- H4 marine chronometer: two dials in sync, longitude solved as a linear relation of time -->
    <g transform="translate(220 470)">
      <circle r="60" fill="#fbf3e2" stroke="#33230f" stroke-width="6"/>
      <line x1="0" y1="0" x2="0" y2="-42" stroke="#33230f" stroke-width="4"/>
      <line x1="0" y1="0" x2="30" y2="14" stroke="#33230f" stroke-width="3"/>
      <circle r="6" fill="#c99a3a"/>
      <circle r="60" fill="none" stroke="#1d3a8a" stroke-width="3" stroke-dasharray="3 8"/>
    </g>
    <g transform="translate(300 600) scale(0.9 0.9)">
    <!-- robe -->
    <path d="M-70 190 Q-90 60 -46 -30 Q0 -58 46 -30 Q90 60 70 190 Z" fill="#4a3320" stroke="#33230f" stroke-width="5"/>
    <path d="M-46 -30 Q0 10 46 -30" fill="none" stroke="#33230f" stroke-width="3.5" opacity="0.6"/>
    <path d="M-20 190 L-14 40 M20 190 L14 40" stroke="#33230f" stroke-width="2.5" opacity="0.35"/>
    <!-- arm -->
    
    
    <path d="M40 10 Q86 6 108 34" fill="none" stroke="#4a3320" stroke-width="16" stroke-linecap="round"/>
      <path d="M40 10 Q86 6 108 34" fill="none" stroke="#33230f" stroke-width="5" stroke-linecap="round" opacity="0.5"/>
      <circle cx="112" cy="36" r="9" fill="#e0b083" stroke="#33230f" stroke-width="3"/>
      <circle r="18" fill="#fbf3e2" stroke="#33230f" stroke-width="4"/><line x1="0" y1="0" x2="0" y2="-10" stroke="#33230f" stroke-width="2.5"/>
    <path d="M-40 -10 Q-70 30 -66 78" fill="none" stroke="#4a3320" stroke-width="16" stroke-linecap="round"/>
    <path d="M-40 -10 Q-70 30 -66 78" fill="none" stroke="#33230f" stroke-width="5" stroke-linecap="round" opacity="0.5"/>
    <circle cx="-67" cy="82" r="9" fill="#e0b083" stroke="#33230f" stroke-width="3"/>
    <!-- head -->
    <circle cx="0" cy="-72" r="44" fill="#e0b083" stroke="#33230f" stroke-width="5"/>
    <path d="M-40 -84 Q0 -122 40 -84 Q42 -104 0 -116 Q-42 -104 -40 -84 Z" fill="#3a2717" stroke="#33230f" stroke-width="4"/>
    <path d="M-16 -68 q6 -8 12 0 M8 -68 q6 -8 12 0" stroke="#33230f" stroke-width="3.5" fill="none" stroke-linecap="round"/>
    <path d="M-6 -50 q6 4 12 0" stroke="#33230f" stroke-width="3" fill="none" stroke-linecap="round"/>
    
    
    <path d="M-40 -92 Q0 -120 40 -92 Z" fill="#c99a3a" stroke="#33230f" stroke-width="4"/>
    
  </g>
  <rect x="0" y="0" width="800" height="800" fill="url(#vign)"/></svg>
