<svg viewBox="0 0 800 800" xmlns="http://www.w3.org/2000/svg" role="img" aria-hidden="true"><defs>
    <linearGradient id="bg" x1="0" y1="0" x2="0" y2="1">
      <stop offset="0" stop-color="#fbf3e2"/>
      <stop offset="0.62" stop-color="#eddab3"/>
      <stop offset="1" stop-color="#e2c793"/>
    </linearGradient>
    <radialGradient id="vign" cx="50%" cy="42%" r="70%">
      <stop offset="0.6" stop-color="#000" stop-opacity="0"/>
      <stop offset="1" stop-color="#3a2410" stop-opacity="0.16"/>
    </radialGradient>
    <marker id="arrow" markerWidth="8" markerHeight="8" refX="4" refY="4" orient="auto">
      <path d="M0 0 L8 4 L0 8 Z" fill="#33230f"/>
    </marker>
  </defs><rect x="0" y="0" width="800" height="800" fill="url(#bg)"/>
    <path d="M560 400 L560 200 A100 100 0 0 1 760 200 L760 400 Z" fill="#fbf3e2" stroke="#33230f" stroke-width="4" opacity="0.9"/>
    <line x1="660" y1="100" x2="660" y2="400" stroke="#33230f" stroke-width="2.5" opacity="0.55"/>
    <rect x="80" y="600" width="300" height="14" rx="3" fill="#e2c793" stroke="#33230f" stroke-width="4"/>
    <line x1="94" y1="614" x2="94" y2="670" stroke="#33230f" stroke-width="6"/>
    <line x1="366" y1="614" x2="366" y2="670" stroke="#33230f" stroke-width="6"/>
    <!-- the rose diagram / bell shape summarizing scattered data -->
    <g transform="translate(240 460)">
      <path d="M-90 140 Q-90 20 0 0 Q90 20 90 140 Z" fill="none" stroke="#1d3a8a" stroke-width="6"/>
      <rect x="-70" y="60" width="24" height="80" fill="#c99a3a" opacity="0.8"/>
      <rect x="-30" y="20" width="24" height="120" fill="#1d3a8a" opacity="0.7"/>
      <rect x="10" y="40" width="24" height="100" fill="#c99a3a" opacity="0.8"/>
      <rect x="50" y="80" width="24" height="60" fill="#1d3a8a" opacity="0.55"/>
      <line x1="-90" y1="140" x2="90" y2="140" stroke="#33230f" stroke-width="4"/>
    </g>
    <g transform="translate(480 610) scale(0.92 0.92)">
    <!-- robe -->
    <path d="M-70 190 Q-90 60 -46 -30 Q0 -58 46 -30 Q90 60 70 190 Z" fill="#1d3a4a" stroke="#33230f" stroke-width="5"/>
    <path d="M-46 -30 Q0 10 46 -30" fill="none" stroke="#33230f" stroke-width="3.5" opacity="0.6"/>
    <path d="M-20 190 L-14 40 M20 190 L14 40" stroke="#33230f" stroke-width="2.5" opacity="0.35"/>
    <!-- arm -->
    <path d="M40 -10 Q92 -34 132 -70" fill="none" stroke="#1d3a4a" stroke-width="16" stroke-linecap="round"/>
      <path d="M40 -10 Q92 -34 132 -70" fill="none" stroke="#33230f" stroke-width="5" stroke-linecap="round" opacity="0.5"/>
      <circle cx="136" cy="-73" r="9" fill="#e0b083" stroke="#33230f" stroke-width="3"/>
    
    
    <path d="M-40 -10 Q-70 30 -66 78" fill="none" stroke="#1d3a4a" stroke-width="16" stroke-linecap="round"/>
    <path d="M-40 -10 Q-70 30 -66 78" fill="none" stroke="#33230f" stroke-width="5" stroke-linecap="round" opacity="0.5"/>
    <circle cx="-67" cy="82" r="9" fill="#e0b083" stroke="#33230f" stroke-width="3"/>
    <!-- head -->
    <circle cx="0" cy="-72" r="44" fill="#e0b083" stroke="#33230f" stroke-width="5"/>
    <path d="M-40 -84 Q0 -122 40 -84 Q42 -104 0 -116 Q-42 -104 -40 -84 Z" fill="#3a2717" stroke="#33230f" stroke-width="4"/>
    <path d="M-16 -68 q6 -8 12 0 M8 -68 q6 -8 12 0" stroke="#33230f" stroke-width="3.5" fill="none" stroke-linecap="round"/>
    <path d="M-6 -50 q6 4 12 0" stroke="#33230f" stroke-width="3" fill="none" stroke-linecap="round"/>
    
    
    
    <path d="M-40 -96 Q-30 -140 0 -140 Q30 -140 40 -96 Z" fill="#fbf3e2" stroke="#33230f" stroke-width="4"/>
  </g>
  <rect x="0" y="0" width="800" height="800" fill="url(#vign)"/></svg>
