<svg xmlns="http://www.w3.org/2000/svg" viewBox="0 0 420 260" width="420" height="260" role="img">
  <rect width="100%" height="100%" fill="#fff"/>
  <g fill="none" stroke="#111" stroke-width="2" stroke-linecap="round" stroke-linejoin="round"><line x1="48" y1="42" x2="48" y2="204" stroke="#cfd8d1" stroke-width="1"/><line x1="66" y1="42" x2="66" y2="204" stroke="#cfd8d1" stroke-width="1"/><line x1="84" y1="42" x2="84" y2="204" stroke="#cfd8d1" stroke-width="1"/><line x1="102" y1="42" x2="102" y2="204" stroke="#cfd8d1" stroke-width="1"/><line x1="120" y1="42" x2="120" y2="204" stroke="#cfd8d1" stroke-width="1"/><line x1="138" y1="42" x2="138" y2="204" stroke="#cfd8d1" stroke-width="1"/><line x1="156" y1="42" x2="156" y2="204" stroke="#cfd8d1" stroke-width="1"/><line x1="174" y1="42" x2="174" y2="204" stroke="#cfd8d1" stroke-width="1"/><line x1="192" y1="42" x2="192" y2="204" stroke="#cfd8d1" stroke-width="1"/><line x1="210" y1="42" x2="210" y2="204" stroke="#cfd8d1" stroke-width="1"/><line x1="228" y1="42" x2="228" y2="204" stroke="#cfd8d1" stroke-width="1"/><line x1="246" y1="42" x2="246" y2="204" stroke="#cfd8d1" stroke-width="1"/><line x1="264" y1="42" x2="264" y2="204" stroke="#cfd8d1" stroke-width="1"/><line x1="282" y1="42" x2="282" y2="204" stroke="#cfd8d1" stroke-width="1"/><line x1="300" y1="42" x2="300" y2="204" stroke="#cfd8d1" stroke-width="1"/><line x1="318" y1="42" x2="318" y2="204" stroke="#cfd8d1" stroke-width="1"/><line x1="336" y1="42" x2="336" y2="204" stroke="#cfd8d1" stroke-width="1"/><line x1="354" y1="42" x2="354" y2="204" stroke="#cfd8d1" stroke-width="1"/><line x1="48" y1="42" x2="354" y2="42" stroke="#cfd8d1" stroke-width="1"/><line x1="48" y1="60" x2="354" y2="60" stroke="#cfd8d1" stroke-width="1"/><line x1="48" y1="78" x2="354" y2="78" stroke="#cfd8d1" stroke-width="1"/><line x1="48" y1="96" x2="354" y2="96" stroke="#cfd8d1" stroke-width="1"/><line x1="48" y1="114" x2="354" y2="114" stroke="#cfd8d1" stroke-width="1"/><line x1="48" y1="132" x2="354" y2="132" stroke="#cfd8d1" stroke-width="1"/><line x1="48" y1="150" x2="354" y2="150" stroke="#cfd8d1" stroke-width="1"/><line x1="48" y1="168" x2="354" y2="168" stroke="#cfd8d1" stroke-width="1"/><line x1="48" y1="186" x2="354" y2="186" stroke="#cfd8d1" stroke-width="1"/><line x1="48" y1="204" x2="354" y2="204" stroke="#cfd8d1" stroke-width="1"/><text x="95" y="220" text-anchor="middle" font-family="Arial, Helvetica, sans-serif" font-size="16" font-weight="600" fill="#111" stroke="none">A</text><polygon points="82,168 118,168 82,150" fill="#f9fbf3"/><text x="265" y="220" text-anchor="middle" font-family="Arial, Helvetica, sans-serif" font-size="16" font-weight="600" fill="#111" stroke="none">B</text><polygon points="220,168 328,168 220,114" fill="#eef8ee"/></g>
</svg>
