<svg xmlns="http://www.w3.org/2000/svg" viewBox="0 0 240 280" role="img" aria-label="Fib, a friendly MindCraft bear drawn with golden-ratio construction lines">
  <defs>
    <radialGradient id="paper" cx="50%" cy="36%" r="78%">
      <stop offset="0" stop-color="#fffdf7"/>
      <stop offset="1" stop-color="#fff8e9"/>
    </radialGradient>
    <linearGradient id="leafWash" x1="52" y1="34" x2="188" y2="244" gradientUnits="userSpaceOnUse">
      <stop offset="0" stop-color="#eefbe4"/>
      <stop offset=".58" stop-color="#dff5c9"/>
      <stop offset="1" stop-color="#b9e86f"/>
    </linearGradient>
    <linearGradient id="goldLine" x1="46" y1="38" x2="202" y2="246" gradientUnits="userSpaceOnUse">
      <stop offset="0" stop-color="#f5d348"/>
      <stop offset=".45" stop-color="#d3a900"/>
      <stop offset="1" stop-color="#9b6a12"/>
    </linearGradient>
    <filter id="softLift" x="-20%" y="-18%" width="140%" height="145%">
      <feDropShadow dx="0" dy="10" stdDeviation="10" flood-color="#143a2e" flood-opacity=".12"/>
    </filter>
  </defs>

  <rect x="10" y="10" width="220" height="260" rx="34" fill="url(#paper)"/>

  <g opacity=".42" stroke="#d3a900" stroke-width="1" fill="none" stroke-linecap="round">
    <path d="M42 68 H198 M42 136 H198 M42 204 H198"/>
    <path d="M64 42 V238 M120 34 V246 M176 42 V238"/>
    <circle cx="120" cy="136" r="86" stroke-dasharray="6 8"/>
    <circle cx="120" cy="136" r="54"/>
    <path d="M68 214 C68 166 106 128 154 128 C184 128 204 148 204 178 C204 196 190 210 172 210 C161 210 152 201 152 190 C152 183 158 177 165 177"/>
    <path d="M58 70 C90 46 150 46 182 70"/>
    <path d="M52 210 C84 238 156 238 188 210"/>
    <circle cx="64" cy="68" r="2" fill="#d3a900"/>
    <circle cx="120" cy="136" r="2" fill="#d3a900"/>
    <circle cx="176" cy="68" r="2" fill="#d3a900"/>
    <circle cx="64" cy="204" r="2" fill="#d3a900"/>
    <circle cx="176" cy="204" r="2" fill="#d3a900"/>
  </g>

  <g filter="url(#softLift)">
    <g stroke="url(#goldLine)" stroke-linecap="round" stroke-linejoin="round">
      <circle cx="70" cy="72" r="30" fill="#fffdf7" stroke-width="4"/>
      <circle cx="170" cy="72" r="30" fill="#fffdf7" stroke-width="4"/>
      <path d="M57 78 C57 63 69 53 83 58 C93 62 97 75 90 85 C85 92 74 91 70 84 C67 79 70 73 75 72" fill="none" stroke-width="2.3" opacity=".8"/>
      <path d="M183 78 C183 63 171 53 157 58 C147 62 143 75 150 85 C155 92 166 91 170 84 C173 79 170 73 165 72" fill="none" stroke-width="2.3" opacity=".8"/>

      <ellipse cx="120" cy="119" rx="72" ry="66" fill="url(#leafWash)" stroke-width="4.5"/>
      <ellipse cx="120" cy="143" rx="43" ry="29" fill="#fffdf7" stroke-width="3"/>
      <path d="M106 54 C113 43 121 40 129 49 M119 55 C126 45 136 44 143 52" fill="none" stroke-width="3"/>

      <ellipse cx="120" cy="212" rx="59" ry="50" fill="url(#leafWash)" stroke-width="4.5"/>
      <ellipse cx="120" cy="216" rx="42" ry="35" fill="#fffdf7" stroke-width="3"/>
      <path d="M120 228 C96 228 88 206 103 190 C118 173 148 183 148 207 C148 226 129 236 116 225 C107 217 111 202 123 201 C130 201 135 208 132 215 C130 219 125 220 122 217" fill="none" stroke-width="3"/>

      <ellipse cx="63" cy="223" rx="31" ry="25" fill="#fffdf7" stroke-width="4"/>
      <ellipse cx="177" cy="223" rx="31" ry="25" fill="#fffdf7" stroke-width="4"/>
      <path d="M49 225 C57 215 72 215 80 225 M160 225 C168 215 183 215 191 225" fill="none" stroke-width="2"/>
      <circle cx="53" cy="214" r="5" fill="#fffdf7" stroke-width="2"/>
      <circle cx="65" cy="210" r="5" fill="#fffdf7" stroke-width="2"/>
      <circle cx="77" cy="214" r="5" fill="#fffdf7" stroke-width="2"/>
      <circle cx="163" cy="214" r="5" fill="#fffdf7" stroke-width="2"/>
      <circle cx="175" cy="210" r="5" fill="#fffdf7" stroke-width="2"/>
      <circle cx="187" cy="214" r="5" fill="#fffdf7" stroke-width="2"/>
    </g>

    <g fill="none" stroke="#247a4d" stroke-width="1.25" opacity=".58" stroke-linecap="round">
      <circle cx="120" cy="120" r="53"/>
      <path d="M70 120 H170 M120 67 V173 M83 83 L157 157 M157 83 L83 157"/>
      <circle cx="70" cy="72" r="18"/>
      <circle cx="170" cy="72" r="18"/>
      <circle cx="120" cy="213" r="39"/>
    </g>

    <g>
      <ellipse cx="88" cy="139" rx="11" ry="7" fill="#fffdf7" opacity=".34"/>
      <ellipse cx="152" cy="139" rx="11" ry="7" fill="#fffdf7" opacity=".34"/>
      <path d="M88 104 C95 95 106 95 112 103" stroke="#143a2e" stroke-width="4.2" fill="none" stroke-linecap="round"/>
      <path d="M128 103 C135 95 146 95 153 104" stroke="#143a2e" stroke-width="4.2" fill="none" stroke-linecap="round"/>
      <circle cx="98" cy="120" r="15" fill="#143a2e"/>
      <circle cx="142" cy="120" r="15" fill="#143a2e"/>
      <circle cx="94" cy="114" r="5.2" fill="#fffdf7"/>
      <circle cx="138" cy="114" r="5.2" fill="#fffdf7"/>
      <circle cx="104" cy="125" r="2.8" fill="#fffdf7" opacity=".9"/>
      <circle cx="148" cy="125" r="2.8" fill="#fffdf7" opacity=".9"/>
      <ellipse cx="120" cy="139" rx="15.5" ry="10.5" fill="#143a2e"/>
      <ellipse cx="120" cy="135" rx="8.5" ry="3.2" fill="#fffdf7" opacity=".78"/>
      <path d="M120 147 V156" stroke="#143a2e" stroke-width="3" fill="none" stroke-linecap="round"/>
      <path d="M99 154 C106 172 134 172 141 154" stroke="#143a2e" stroke-width="3.4" fill="none" stroke-linecap="round"/>
    </g>
  </g>
</svg>
