<svg xmlns="http://www.w3.org/2000/svg" viewBox="0 0 240 280" role="img" aria-label="Fib, a friendly MindCraft bear holding a little map">
  <defs>
    <linearGradient id="fur" x1="0%" y1="0%" x2="100%" y2="100%">
      <stop offset="0%" stop-color="#d4a574"/>
      <stop offset="100%" stop-color="#a67c3a"/>
    </linearGradient>
    <linearGradient id="belly" x1="0%" y1="0%" x2="0%" y2="100%">
      <stop offset="0%" stop-color="#fff8ef"/>
      <stop offset="100%" stop-color="#f5e6c8"/>
    </linearGradient>
  </defs>
  <!-- ears -->
  <circle cx="78" cy="58" r="26" fill="url(#fur)"/>
  <circle cx="162" cy="58" r="26" fill="url(#fur)"/>
  <circle cx="78" cy="58" r="13" fill="#ffe8c8"/>
  <circle cx="162" cy="58" r="13" fill="#ffe8c8"/>
  <!-- head -->
  <ellipse cx="120" cy="112" rx="72" ry="64" fill="url(#fur)"/>
  <!-- muzzle -->
  <ellipse cx="120" cy="132" rx="34" ry="26" fill="url(#belly)"/>
  <!-- eyes -->
  <ellipse cx="98" cy="108" rx="9" ry="11" fill="#2a2010"/>
  <ellipse cx="142" cy="108" rx="9" ry="11" fill="#2a2010"/>
  <circle cx="101" cy="104" r="3" fill="#fff"/>
  <circle cx="145" cy="104" r="3" fill="#fff"/>
  <!-- nose + smile -->
  <ellipse cx="120" cy="126" rx="7" ry="5" fill="#5c3d1e"/>
  <path d="M108 140 Q120 152 132 140" stroke="#5c3d1e" stroke-width="2.5" fill="none" stroke-linecap="round"/>
  <!-- body -->
  <ellipse cx="120" cy="214" rx="62" ry="54" fill="url(#fur)"/>
  <ellipse cx="120" cy="220" rx="38" ry="32" fill="url(#belly)"/>
  <!-- little map scroll -->
  <rect x="154" y="188" width="38" height="48" rx="6" fill="#f7f3ee" stroke="#247a4d" stroke-width="2"/>
  <path d="M162 202 C168 196 178 196 184 202" stroke="#c4f547" stroke-width="2" fill="none"/>
  <circle cx="166" cy="214" r="3" fill="#247a4d"/>
  <circle cx="178" cy="222" r="3" fill="#c1121f"/>
  <circle cx="182" cy="208" r="3" fill="#247a4d"/>
  <!-- wave paw -->
  <ellipse cx="62" cy="208" rx="16" ry="14" fill="url(#belly)" stroke="#a67c3a" stroke-width="2"/>
  <path d="M54 202 L54 214 M62 200 L62 216 M70 202 L70 214" stroke="#a67c3a" stroke-width="2" stroke-linecap="round"/>
</svg>
